<svg xmlns="http://www.w3.org/2000/svg" viewBox="0 0 713.07 498.54"><defs><style>.a,.c{fill:none;}.a{stroke:#fff;stroke-miterlimit:10;stroke-width:0.25px;}.b{fill:#fff;}</style></defs><title>circles-v2</title><line class="a" y1="249.67" x2="465.23" y2="249.67"/><path class="a" d="M541.29,384h24.93a224.28,224.28,0,1,1,448.56,0h24.92a248.35,248.35,0,0,0-73-176.52c-97.38-97.38-255-97.38-352.35,0A248.35,248.35,0,0,0,541.29,384Z" transform="translate(-326.75 -134.34)"/><path class="b" d="M649.56,242.73A199.37,199.37,0,0,1,989.86,384h24.92a224.28,224.28,0,1,0-448.56,0h24.92A198.69,198.69,0,0,1,649.56,242.73Z" transform="translate(-326.75 -134.34)"/><path class="b" d="M684.79,278A149.53,149.53,0,0,1,940,384h24.92a174.44,174.44,0,1,0-348.88,0H641A149,149,0,0,1,684.79,278Z" transform="translate(-326.75 -134.34)"/><path class="b" d="M720,313.2A99.67,99.67,0,0,1,890.17,384h24.92a124.6,124.6,0,1,0-249.19,0h24.92A99.34,99.34,0,0,1,720,313.2Z" transform="translate(-326.75 -134.34)"/><path class="b" d="M755.26,348.44A49.84,49.84,0,0,1,840.33,384h24.92a74.76,74.76,0,1,0-149.51,0h24.92A49.64,49.64,0,0,1,755.26,348.44Z" transform="translate(-326.75 -134.34)"/><path class="b" d="M808.11,366.05a24.92,24.92,0,0,0-42.53,18h49.83A24.84,24.84,0,0,0,808.11,366.05Z" transform="translate(-326.75 -134.34)"/><path class="c" d="M843.35,436.52a74.51,74.51,0,0,0,21.9-52.5H840.33a49.84,49.84,0,0,1-99.67,0H715.74a74.76,74.76,0,0,0,127.61,52.5Z" transform="translate(-326.75 -134.34)"/><path class="c" d="M878.58,471.76A124.12,124.12,0,0,0,915.09,384H890.17a99.68,99.68,0,0,1-199.35,0H665.9a124.6,124.6,0,0,0,212.68,87.74Z" transform="translate(-326.75 -134.34)"/><path class="b" d="M949.05,542.23A224.28,224.28,0,0,1,566.22,384H541.29a248.33,248.33,0,0,0,73,175.82c97.38,97.38,255,97.38,352.35,0a248.33,248.33,0,0,0,73-175.82h-24.92A223.53,223.53,0,0,1,949.05,542.23Z" transform="translate(-326.75 -134.34)"/><path class="b" d="M913.82,507A174.44,174.44,0,0,1,616.06,384H591.14a199.36,199.36,0,0,0,398.72,0H964.94A173.85,173.85,0,0,1,913.82,507Z" transform="translate(-326.75 -134.34)"/><path class="b" d="M878.58,471.76A124.6,124.6,0,0,1,665.9,384H641a149.52,149.52,0,0,0,299,0H915.09A124.12,124.12,0,0,1,878.58,471.76Z" transform="translate(-326.75 -134.34)"/><path class="b" d="M843.35,436.52A74.76,74.76,0,0,1,715.74,384H690.82a99.68,99.68,0,0,0,199.35,0H865.25A74.51,74.51,0,0,1,843.35,436.52Z" transform="translate(-326.75 -134.34)"/><path class="b" d="M808.11,401.29A24.92,24.92,0,0,1,765.58,384H740.66a49.84,49.84,0,0,0,99.67,0H815.41A24.84,24.84,0,0,1,808.11,401.29Z" transform="translate(-326.75 -134.34)"/></svg>