<svg xmlns="http://www.w3.org/2000/svg" viewBox="0 0 286.9 43.18"><title>logo</title><path d="M612.72,385.31c-.62.07-10.79,2.76-11.33,3,0,.21,0,.44,0,.67q0,7.09,0,14.2a5.61,5.61,0,0,1,0,.71,1.24,1.24,0,0,1-2.47,0,4.34,4.34,0,0,1,0-.51q0-7.85,0-15.68v-.32a1.25,1.25,0,0,1,1-1.31c.88-.26,1.78-.48,2.67-.72l8.19-2.17.44-.16c-.13-.22-.24-.4-.36-.58l-11.5-17.26a3.66,3.66,0,0,1-.31-.49,1.24,1.24,0,0,1,1-1.86h.51l17.73-.06a11.66,11.66,0,0,1,2.36.15,9.53,9.53,0,0,1,5.88,3.74A10.57,10.57,0,0,1,624.89,381a9.57,9.57,0,0,1-3.37,1.81c-.26.08-.51.21-.77.31a6.17,6.17,0,0,1-.61.19l-4.28,1.14-.51.16a1.33,1.33,0,0,0,.33.62q2.54,3.82,5.09,7.64l6.51,9.79a5,5,0,0,1,.35.54,1.25,1.25,0,0,1-2.06,1.39,4.87,4.87,0,0,1-.37-.52q-6-9.06-12.07-18.12Zm1-3,.38-.09,5.4-1.42a1,1,0,0,0,.35-.15,1.15,1.15,0,0,1,.58-.24,6.67,6.67,0,0,0,2.63-1.29,7.6,7.6,0,0,0,2.9-5.31,7.72,7.72,0,0,0-2.06-6.33,6.69,6.69,0,0,0-5.13-2.24c-5.2,0-10.4,0-15.6,0h-.38c-.1,0-.22,0-.29.13s.06.13.1.2Z" transform="translate(-539.32 -361.92)" style="fill:#fff"/><path d="M793.92,399.31V364.68a4.62,4.62,0,0,1,0-.83,1.22,1.22,0,0,1,1.14-1,1.25,1.25,0,0,1,1.34,1.11,4.47,4.47,0,0,1,0,.52v39a2.26,2.26,0,0,1,0,.45,1.26,1.26,0,0,1-2.21.69,5.11,5.11,0,0,1-.33-.48Q782.23,386.57,770.55,369l-.42-.62c-.18,0-.14.16-.15.25V403.1c0,.23,0,.47,0,.7a1.26,1.26,0,0,1-2.51,0,4.34,4.34,0,0,1,0-.51V364.44a4.34,4.34,0,0,1,0-.51,1.27,1.27,0,0,1,2.21-.73,5.44,5.44,0,0,1,.45.62l10.46,15.73,12.81,19.25.4.56Z" transform="translate(-539.32 -361.92)" style="fill:#fff"/><path d="M641.05,368.27c0,.09-.08.14-.08.2,0,.23,0,.47,0,.7V403a5.45,5.45,0,0,1,0,.7,2.26,2.26,0,0,1-.17.68,1.23,1.23,0,0,1-1.3.63,1.25,1.25,0,0,1-1-1.08,3,3,0,0,1,0-.52V364.06a1.29,1.29,0,0,1,.86-1.23,1.44,1.44,0,0,1,1.51.44,3.73,3.73,0,0,1,.33.48l9.54,14.33,13.81,20.75.33.5c.17,0,.17-.1.17-.19s0-.38,0-.58V364.83c0-.23,0-.47,0-.7a1.25,1.25,0,1,1,2.5,0c0,.13,0,.26,0,.39v38.87c0,.17,0,.34,0,.51a1.25,1.25,0,0,1-2.12.77,3.1,3.1,0,0,1-.35-.46l-19.78-29.73-3.74-5.62A1.87,1.87,0,0,0,641.05,368.27Z" transform="translate(-539.32 -361.92)" style="fill:#fff"/><path d="M569.05,384.39v-6.62c0-.28,0-.55,0-.83a.41.41,0,0,0,0-.19,7,7,0,0,1,.08-2.54,13,13,0,0,1,.76-2.92,14.53,14.53,0,0,1,27.67,1.62,13.71,13.71,0,0,1,.42,3.24c0,.61,0,1.23,0,1.85v11.37c0,.62,0,1.23,0,1.85a7.85,7.85,0,0,1-.13,1.6,14.52,14.52,0,0,1-28.49,1,15.79,15.79,0,0,1-.37-3.76Zm26.45-.1v-3.92c0-.71,0-1.41,0-2.12s.06-1.45,0-2.17a12.13,12.13,0,0,0-.33-2.48,11.93,11.93,0,0,0-13.2-9.05,11.65,11.65,0,0,0-9.17,6.48,11.39,11.39,0,0,0-1.28,5.06c0,.27,0,.55,0,.83s.05.64.05,1q0,6,0,12v.45a10.38,10.38,0,0,0,.19,2.49,12,12,0,0,0,23.42.74,9.8,9.8,0,0,0,.34-2.41c0-.4,0-.81,0-1.22Z" transform="translate(-539.32 -361.92)" style="fill:#fff"/><path d="M541.82,399.42a1,1,0,0,0,.49-.52c1.15-1.71,2.28-3.42,3.42-5.13l6.55-9.84,13.38-20.11a6.3,6.3,0,0,1,.37-.53,1.25,1.25,0,0,1,2.06,1.41,6.22,6.22,0,0,1-.35.54l-12,18.07-.39.62c.14.23.28.44.42.65l12,18a4.93,4.93,0,0,1,.34.54,1.24,1.24,0,0,1-2.05,1.4,4.72,4.72,0,0,1-.44-.63l-11.38-17-.41-.58a1.73,1.73,0,0,0-.46.57l-8.22,12.36-3.24,4.86a4,4,0,0,1-.34.47,1.23,1.23,0,0,1-1.39.39,1.22,1.22,0,0,1-.84-1.11c0-.17,0-.34,0-.51V364.5a5.52,5.52,0,0,1,0-.58,1.24,1.24,0,0,1,2.47,0c0,.26,0,.51,0,.77v34.73Z" transform="translate(-539.32 -361.92)" style="fill:#fff"/><path d="M724.48,382.22c-8,2-15.91,4-23.85,6a3.32,3.32,0,0,0-.06.44c0,.28,0,.55,0,.83v13.69c0,.21,0,.43,0,.64a1.25,1.25,0,0,1-1.31,1.21,1.27,1.27,0,0,1-1.2-1.27V364.59c0-.21,0-.42,0-.64a1.24,1.24,0,0,1,1.21-1.18,1.22,1.22,0,0,1,1.26,1.05,3.94,3.94,0,0,1,0,.77q0,10.08,0,20.17a1.7,1.7,0,0,0,.07.77.54.54,0,0,0,.18,0l23.57-5.89a1.28,1.28,0,0,0,.1-.73V364.45a3.43,3.43,0,0,1,0-.64,1.21,1.21,0,0,1,1.24-1,1.2,1.2,0,0,1,1.2,1,4.91,4.91,0,0,1,0,.77v38.55c0,.23,0,.47,0,.7a1.24,1.24,0,0,1-2.48,0c0-.23,0-.47,0-.7V383.08C724.49,382.83,724.48,382.57,724.48,382.22Z" transform="translate(-539.32 -361.92)" style="fill:#fff"/><path d="M761.67,396.53c-.55.06-20,4.84-20.7,5.09-.06.16-.13.34-.19.52-.2.59-.39,1.18-.6,1.76a2.3,2.3,0,0,1-.23.53,1.24,1.24,0,0,1-2.26-.94c.06-.25.14-.5.22-.74q4.5-13.42,9-26.84l4-11.94c0-.12.07-.24.12-.36a1.23,1.23,0,0,1,1.2-.8,1.19,1.19,0,0,1,1.15.78c.06.13.1.28.15.42q6.5,19.46,13,38.9a3.92,3.92,0,0,1,.16.56,1.25,1.25,0,0,1-2.38.75,3.9,3.9,0,0,1-.17-.48l-2.19-6.58C761.83,397,761.76,396.76,761.67,396.53ZM742,398.63s.08.06.11.05l18.44-4.54a1.58,1.58,0,0,0,.27-.13q-4.26-12.76-8.51-25.51a2.5,2.5,0,0,0-.14-.3,1.08,1.08,0,0,0-.13.19q-5,15.06-10.07,30.13S742,398.6,742,398.63Z" transform="translate(-539.32 -361.92)" style="fill:#fff"/><path d="M816.26,365.27h-8.15a7.42,7.42,0,0,0-3.46.86,8.49,8.49,0,0,0-4.86,7.74,8.63,8.63,0,0,0,6.92,8.57,8.51,8.51,0,0,0,1.59.18c2.12,0,4.24.06,6.36,0a10.45,10.45,0,0,1,3.11.31,11.08,11.08,0,0,1,8.08,8.1A11.22,11.22,0,0,1,819,404.28a10.89,10.89,0,0,1-3.83.72H798.83a3.31,3.31,0,0,1-.45,0,1.24,1.24,0,0,1-1.08-1.24,1.22,1.22,0,0,1,1-1.22,4.84,4.84,0,0,1,.76,0h15.48a10.49,10.49,0,0,0,2.68-.29,8.7,8.7,0,0,0,0-16.79,5.38,5.38,0,0,0-2.15-.22h-.38l-6.17,0a11.22,11.22,0,0,1-11.2-10,11.2,11.2,0,0,1,8.5-12.13,9.19,9.19,0,0,1,2.86-.28h.39l15.35.05c.21,0,.43,0,.64,0a1.24,1.24,0,0,1,1.15,1.24,1.26,1.26,0,0,1-1.16,1.24h-8.8Z" transform="translate(-539.32 -361.92)" style="fill:#fff"/><path d="M684,365.33v37.73c0,.23,0,.47,0,.7a1.26,1.26,0,0,1-1.23,1.24,1.25,1.25,0,0,1-1.27-1.13,4.92,4.92,0,0,1,0-.77v-37c0-.23,0-.47,0-.68a1.1,1.1,0,0,0-.72-.11h-11a2.27,2.27,0,0,1-.45,0,1.24,1.24,0,0,1,0-2.45,2.86,2.86,0,0,1,.51,0h25.88a3.38,3.38,0,0,1,.45,0,1.25,1.25,0,0,1,0,2.47c-.21,0-.43,0-.64,0H684.88Z" transform="translate(-539.32 -361.92)" style="fill:#fff"/><path d="M731.09,383.85V364.64a4.91,4.91,0,0,1,0-.77,1.23,1.23,0,0,1,1.39-1.05,1.24,1.24,0,0,1,1.1,1.08,5.61,5.61,0,0,1,0,.58l0,38.74a5.56,5.56,0,0,1,0,.58,1.26,1.26,0,0,1-2.51,0c0-.22,0-.43,0-.64V383.85Z" transform="translate(-539.32 -361.92)" style="fill:#fff"/><path d="M634.41,384v19.14c0,.24,0,.48,0,.71a1.26,1.26,0,0,1-2.52,0c0-.19,0-.39,0-.58q0-19.33,0-38.68a5.42,5.42,0,0,1,0-.57,1.24,1.24,0,0,1,2.46-.1,5.77,5.77,0,0,1,0,.83V384Z" transform="translate(-539.32 -361.92)" style="fill:#fff"/></svg>